<svg xmlns="http://www.w3.org/2000/svg" width="23" height="23" viewBox="0 0 23 23"><g fill="none" stroke="#fff" stroke-width="1"><rect width="23" height="23" rx="7" stroke="none"/><rect x="0.5" y="0.5" width="22" height="22" rx="6.5" fill="none"/></g><path d="M6.593,1.188c1.76,0,1.969.007,2.664.038a3.644,3.644,0,0,1,1.225.227,2.041,2.041,0,0,1,.758.493,2.045,2.045,0,0,1,.493.758,3.644,3.644,0,0,1,.227,1.225c.032.7.038.9.038,2.664s-.007,1.969-.038,2.664a3.64,3.64,0,0,1-.227,1.224,2.181,2.181,0,0,1-1.251,1.252,3.644,3.644,0,0,1-1.225.227c-.7.032-.9.038-2.664.038s-1.969-.007-2.664-.038a3.64,3.64,0,0,1-1.224-.227,2.037,2.037,0,0,1-.758-.493,2.044,2.044,0,0,1-.493-.758,3.64,3.64,0,0,1-.227-1.224c-.032-.7-.038-.9-.038-2.664s.007-1.969.038-2.664A3.644,3.644,0,0,1,1.454,2.7a2.047,2.047,0,0,1,.493-.758,2.037,2.037,0,0,1,.758-.493,3.64,3.64,0,0,1,1.224-.227c.7-.032.9-.038,2.664-.038M6.593,0C4.8,0,4.578.008,3.875.04a4.847,4.847,0,0,0-1.6.306,3.236,3.236,0,0,0-1.168.761,3.237,3.237,0,0,0-.76,1.168,4.85,4.85,0,0,0-.307,1.6C.008,4.578,0,4.8,0,6.593S.008,8.608.04,9.312a4.843,4.843,0,0,0,.307,1.6,3.234,3.234,0,0,0,.76,1.168,3.234,3.234,0,0,0,1.168.76,4.846,4.846,0,0,0,1.6.307c.7.032.928.04,2.718.04s2.015-.008,2.719-.04a4.849,4.849,0,0,0,1.6-.307,3.369,3.369,0,0,0,1.928-1.928,4.829,4.829,0,0,0,.306-1.6c.032-.7.04-.928.04-2.718s-.007-2.015-.04-2.718a4.836,4.836,0,0,0-.306-1.6,3.231,3.231,0,0,0-.761-1.168A3.239,3.239,0,0,0,10.912.346,4.851,4.851,0,0,0,9.312.04C8.608.008,8.384,0,6.593,0m.013,3.218A3.388,3.388,0,1,0,9.995,6.606,3.388,3.388,0,0,0,6.606,3.218m0,5.587a2.2,2.2,0,1,1,2.2-2.2,2.2,2.2,0,0,1-2.2,2.2m4.278-5.745a.785.785,0,1,1-.785-.785.785.785,0,0,1,.785.785" transform="translate(5.089 5.089)" fill="#fff" fill-rule="evenodd"/></svg>